<?xml version="1.0" standalone="no"?>
<!DOCTYPE svg PUBLIC "-//W3C//DTD SVG 20010904//EN"
 "http://www.w3.org/TR/2001/REC-SVG-20010904/DTD/svg10.dtd">
<svg version="1.0" xmlns="http://www.w3.org/2000/svg"
 width="335.000000pt" height="150.000000pt" viewBox="0 0 335.000000 150.000000"
 preserveAspectRatio="xMidYMid meet">

<g transform="translate(0.000000,150.000000) scale(0.100000,-0.100000)"
fill="#000000" stroke="none">
<path d="M880 760 l0 -740 85 0 85 0 0 740 0 740 -85 0 -85 0 0 -740z"/>
<path d="M233 1089 c-141 -27 -213 -97 -228 -222 l-7 -57 91 0 c89 0 91 1 91
24 0 36 42 90 80 103 43 15 123 16 171 3 80 -22 124 -123 85 -198 -23 -45 -46
-57 -221 -118 -85 -29 -169 -61 -185 -69 -90 -46 -133 -207 -99 -366 15 -68
72 -127 155 -159 50 -20 77 -23 184 -23 144 0 206 17 278 78 71 61 73 80 70
482 -3 334 -4 350 -25 388 -26 48 -55 76 -108 103 -76 38 -227 52 -332 31z
m292 -817 c-13 -87 -98 -132 -217 -116 -72 9 -111 40 -125 99 -27 108 16 161
178 218 57 21 118 46 134 56 l30 18 3 -116 c2 -64 0 -135 -3 -159z"/>
<path d="M2310 1084 c-108 -29 -177 -87 -199 -169 -7 -26 -11 -190 -11 -467
l0 -428 88 0 87 0 0 408 c0 224 3 419 8 434 4 16 24 39 48 55 32 21 55 27 118
31 l78 4 17 59 c26 93 30 89 -81 88 -54 0 -123 -7 -153 -15z"/>
<path d="M2870 1087 c-144 -34 -220 -116 -220 -239 l0 -38 84 0 84 0 7 30 c16
71 77 110 172 110 69 0 134 -27 158 -64 21 -32 24 -116 5 -151 -20 -38 -48
-52 -227 -114 -186 -65 -224 -89 -259 -165 -20 -43 -24 -67 -24 -154 0 -113
13 -157 58 -205 64 -68 201 -105 341 -93 139 13 232 62 273 143 23 48 23 51
23 398 0 263 -3 359 -13 387 -20 56 -81 112 -148 138 -73 27 -233 36 -314 17z
m285 -867 c-18 -36 -54 -55 -118 -64 -146 -22 -236 55 -212 181 11 59 56 92
193 141 66 24 127 51 134 59 21 26 24 -276 3 -317z"/>
<path d="M1230 636 c0 -289 4 -455 11 -473 29 -79 129 -139 252 -153 199 -23
358 33 408 145 17 37 19 75 19 483 l0 442 -85 0 -85 0 0 -409 c0 -229 -4 -421
-9 -434 -5 -14 -25 -35 -43 -48 -27 -20 -48 -25 -118 -27 -76 -3 -89 -1 -120
20 -19 13 -40 35 -47 48 -10 19 -13 128 -13 438 l0 412 -85 0 -85 0 0 -444z"/>
</g>
</svg>
